# Blender 3.6.0
# www.blender.org
o Cylinder
v 0.000000 -27.519146 -6.029369
v 21.706543 60.692608 -19.557407
v 1.176271 -27.519146 -5.913516
v 22.264069 60.692608 -19.502495
v 2.307340 -27.519146 -5.570410
v 22.800167 60.692608 -19.339870
v 3.349738 -27.519146 -5.013237
v 23.294241 60.692608 -19.075783
v 4.263407 -27.519146 -4.263407
v 23.727299 60.692608 -18.720383
v 5.013237 -27.519146 -3.349738
v 24.082699 60.692608 -18.287325
v 5.570410 -27.519146 -2.307340
v 24.346786 60.692608 -17.793251
v 5.913516 -27.519146 -1.176272
v 24.509411 60.692608 -17.257153
v 6.029369 -27.519146 -0.000000
v 24.564325 60.692608 -16.699627
v 5.913516 -27.519146 1.176271
v 24.509411 60.692608 -16.142101
v 5.570410 -27.519146 2.307340
v 24.346786 60.692608 -15.606003
v 5.013237 -27.519146 3.349738
v 24.082699 60.692608 -15.111930
v 4.263407 -27.519146 4.263407
v 23.727299 60.692608 -14.678871
v 3.349738 -27.519146 5.013237
v 23.294241 60.692608 -14.323470
v 2.307340 -27.519146 5.570410
v 22.800167 60.692608 -14.059384
v 1.176271 -27.519146 5.913516
v 22.264069 60.692608 -13.896760
v 0.000000 -27.519146 6.029369
v 21.706543 60.692608 -13.841847
v -1.176271 -27.519146 5.913516
v 21.149019 60.692608 -13.896760
v -2.307339 -27.519146 5.570410
v 20.612919 60.692608 -14.059384
v -3.349738 -27.519146 5.013237
v 20.118847 60.692608 -14.323470
v -4.263407 -27.519146 4.263407
v 19.685787 60.692608 -14.678871
v -5.013237 -27.519146 3.349738
v 19.330387 60.692608 -15.111930
v -5.570410 -27.519146 2.307340
v 19.066299 60.692608 -15.606003
v -5.913516 -27.519146 1.176271
v 18.903675 60.692608 -16.142101
v -6.029369 -27.519146 -0.000000
v 18.848764 60.692608 -16.699627
v -5.913516 -27.519146 -1.176272
v 18.903675 60.692608 -17.257153
v -5.570410 -27.519146 -2.307340
v 19.066299 60.692608 -17.793251
v -5.013237 -27.519146 -3.349738
v 19.330387 60.692608 -18.287325
v -4.263407 -27.519146 -4.263407
v 19.685787 60.692608 -18.720383
v -3.349738 -27.519146 -5.013237
v 20.118847 60.692608 -19.075783
v -2.307339 -27.519146 -5.570410
v 20.612919 60.692608 -19.339870
v -1.176271 -27.519146 -5.913516
v 21.149019 60.692608 -19.502495
vn 0.0965 -0.1740 -0.9800
vn 0.2837 -0.2119 -0.9352
vn 0.4576 -0.2400 -0.8562
vn 0.6130 -0.2577 -0.7469
vn 0.7454 -0.2647 -0.6118
vn 0.8513 -0.2611 -0.4550
vn 0.9273 -0.2468 -0.2813
vn 0.9704 -0.2220 -0.0956
vn 0.9776 -0.1872 0.0963
vn 0.9471 -0.1432 0.2873
vn 0.8782 -0.0916 0.4694
vn 0.7726 -0.0343 0.6340
vn 0.6342 0.0260 0.7727
vn 0.4696 0.0864 0.8786
vn 0.2873 0.1440 0.9470
vn 0.0961 0.1962 0.9758
vn -0.0951 0.2410 0.9659
vn -0.2789 0.2771 0.9195
vn -0.4491 0.3037 0.8403
vn -0.6009 0.3204 0.7323
vn -0.7305 0.3271 0.5995
vn -0.8345 0.3236 0.4460
vn -0.9098 0.3101 0.2760
vn -0.9534 0.2867 0.0939
vn -0.9627 0.2535 -0.0948
vn -0.9353 0.2114 -0.2837
vn -0.8704 0.1614 -0.4652
vn -0.7687 0.1053 -0.6309
vn -0.6337 0.0455 -0.7722
vn -0.4713 -0.0152 -0.8818
vn -0.0000 1.0000 -0.0000
vn -0.2895 -0.0737 -0.9543
vn -0.0972 -0.1275 -0.9871
vn -0.0000 -1.0000 -0.0000
vn 0.6342 0.0260 0.7728
vn 0.0001 1.0000 -0.0000
vn -0.0001 1.0000 -0.0000
vt 1.000000 1.000000
vt 0.968750 0.500000
vt 1.000000 0.500000
vt 0.968750 1.000000
vt 0.937500 0.500000
vt 0.937500 1.000000
vt 0.906250 0.500000
vt 0.906250 1.000000
vt 0.875000 0.500000
vt 0.875000 1.000000
vt 0.843750 0.500000
vt 0.812500 1.000000
vt 0.812500 0.500000
vt 0.781250 1.000000
vt 0.781250 0.500000
vt 0.750000 1.000000
vt 0.750000 0.500000
vt 0.718750 1.000000
vt 0.718750 0.500000
vt 0.687500 1.000000
vt 0.687500 0.500000
vt 0.656250 1.000000
vt 0.656250 0.500000
vt 0.625000 1.000000
vt 0.625000 0.500000
vt 0.593750 1.000000
vt 0.593750 0.500000
vt 0.562500 1.000000
vt 0.562500 0.500000
vt 0.531250 1.000000
vt 0.531250 0.500000
vt 0.500000 1.000000
vt 0.500000 0.500000
vt 0.468750 1.000000
vt 0.468750 0.500000
vt 0.437500 1.000000
vt 0.437500 0.500000
vt 0.406250 1.000000
vt 0.406250 0.500000
vt 0.375000 1.000000
vt 0.375000 0.500000
vt 0.343750 1.000000
vt 0.343750 0.500000
vt 0.312500 0.500000
vt 0.312500 1.000000
vt 0.281250 0.500000
vt 0.281250 1.000000
vt 0.250000 0.500000
vt 0.250000 1.000000
vt 0.218750 0.500000
vt 0.218750 1.000000
vt 0.187500 0.500000
vt 0.187500 1.000000
vt 0.156250 0.500000
vt 0.156250 1.000000
vt 0.125000 0.500000
vt 0.125000 1.000000
vt 0.093750 0.500000
vt 0.093750 1.000000
vt 0.062500 0.500000
vt 0.158156 0.028269
vt 0.471731 0.158156
vt 0.341844 0.471731
vt 0.062500 1.000000
vt 0.031250 0.500000
vt 0.031250 1.000000
vt 0.000000 0.500000
vt 0.796822 0.014612
vt 0.514612 0.203178
vt 0.703178 0.485388
vt 0.843750 1.000000
vt 0.296822 0.485388
vt 0.250000 0.490000
vt 0.203178 0.485388
vt 0.158156 0.471731
vt 0.116663 0.449553
vt 0.080294 0.419706
vt 0.050447 0.383337
vt 0.028269 0.341844
vt 0.014612 0.296822
vt 0.010000 0.250000
vt 0.014612 0.203178
vt 0.028269 0.158156
vt 0.050447 0.116663
vt 0.080294 0.080294
vt 0.116663 0.050447
vt 0.203178 0.014612
vt 0.250000 0.010000
vt 0.296822 0.014612
vt 0.341844 0.028269
vt 0.383337 0.050447
vt 0.419706 0.080294
vt 0.449553 0.116663
vt 0.485388 0.203178
vt 0.490000 0.250000
vt 0.485388 0.296822
vt 0.471731 0.341844
vt 0.449553 0.383337
vt 0.419706 0.419706
vt 0.383337 0.449553
vt 0.000000 1.000000
vt 0.750000 0.490000
vt 0.796822 0.485388
vt 0.841844 0.471731
vt 0.883337 0.449553
vt 0.919706 0.419706
vt 0.949553 0.383337
vt 0.971731 0.341844
vt 0.985388 0.296822
vt 0.990000 0.250000
vt 0.985388 0.203178
vt 0.971731 0.158156
vt 0.949553 0.116663
vt 0.919706 0.080294
vt 0.883337 0.050447
vt 0.841844 0.028269
vt 0.750000 0.010000
vt 0.703178 0.014612
vt 0.658156 0.028269
vt 0.616663 0.050447
vt 0.580294 0.080294
vt 0.550447 0.116663
vt 0.528269 0.158156
vt 0.510000 0.250000
vt 0.514612 0.296822
vt 0.528269 0.341844
vt 0.550447 0.383337
vt 0.580294 0.419706
vt 0.616663 0.449553
vt 0.658156 0.471731
s 0
f 2/1/1 3/2/1 1/3/1
f 4/4/2 5/5/2 3/2/2
f 6/6/3 7/7/3 5/5/3
f 8/8/4 9/9/4 7/7/4
f 10/10/5 11/11/5 9/9/5
f 11/11/6 14/12/6 13/13/6
f 13/13/7 16/14/7 15/15/7
f 15/15/8 18/16/8 17/17/8
f 17/17/9 20/18/9 19/19/9
f 19/19/10 22/20/10 21/21/10
f 21/21/11 24/22/11 23/23/11
f 23/23/12 26/24/12 25/25/12
f 25/25/13 28/26/13 27/27/13
f 27/27/14 30/28/14 29/29/14
f 29/29/15 32/30/15 31/31/15
f 31/31/16 34/32/16 33/33/16
f 33/33/17 36/34/17 35/35/17
f 35/35/18 38/36/18 37/37/18
f 37/37/19 40/38/19 39/39/19
f 39/39/20 42/40/20 41/41/20
f 41/41/21 44/42/21 43/43/21
f 44/42/22 45/44/22 43/43/22
f 46/45/23 47/46/23 45/44/23
f 48/47/24 49/48/24 47/46/24
f 50/49/25 51/50/25 49/48/25
f 52/51/26 53/52/26 51/50/26
f 54/53/27 55/54/27 53/52/27
f 56/55/28 57/56/28 55/54/28
f 58/57/29 59/58/29 57/56/29
f 60/59/30 61/60/30 59/58/30
f 38/61/31 22/62/31 6/63/31
f 62/64/32 63/65/32 61/60/32
f 64/66/33 1/67/33 63/65/33
f 31/68/34 47/69/34 63/70/34
f 2/1/1 4/4/1 3/2/1
f 4/4/2 6/6/2 5/5/2
f 6/6/3 8/8/3 7/7/3
f 8/8/4 10/10/4 9/9/4
f 10/10/5 12/71/5 11/11/5
f 11/11/6 12/71/6 14/12/6
f 13/13/7 14/12/7 16/14/7
f 15/15/8 16/14/8 18/16/8
f 17/17/9 18/16/9 20/18/9
f 19/19/10 20/18/10 22/20/10
f 21/21/11 22/20/11 24/22/11
f 23/23/12 24/22/12 26/24/12
f 25/25/35 26/24/35 28/26/35
f 27/27/14 28/26/14 30/28/14
f 29/29/15 30/28/15 32/30/15
f 31/31/16 32/30/16 34/32/16
f 33/33/17 34/32/17 36/34/17
f 35/35/18 36/34/18 38/36/18
f 37/37/19 38/36/19 40/38/19
f 39/39/20 40/38/20 42/40/20
f 41/41/21 42/40/21 44/42/21
f 44/42/22 46/45/22 45/44/22
f 46/45/23 48/47/23 47/46/23
f 48/47/24 50/49/24 49/48/24
f 50/49/25 52/51/25 51/50/25
f 52/51/26 54/53/26 53/52/26
f 54/53/27 56/55/27 55/54/27
f 56/55/28 58/57/28 57/56/28
f 58/57/29 60/59/29 59/58/29
f 60/59/30 62/64/30 61/60/30
f 6/63/31 4/72/31 2/73/31
f 2/73/31 64/74/31 62/75/31
f 62/75/31 60/76/31 58/77/31
f 58/77/31 56/78/31 54/79/31
f 54/79/36 52/80/36 50/81/36
f 50/81/36 48/82/36 46/83/36
f 46/83/31 44/84/31 42/85/31
f 42/85/31 40/86/31 38/61/31
f 38/61/31 36/87/31 34/88/31
f 34/88/31 32/89/31 30/90/31
f 30/90/31 28/91/31 26/92/31
f 26/92/31 24/93/31 22/62/31
f 22/62/37 20/94/37 18/95/37
f 18/95/37 16/96/37 14/97/37
f 14/97/31 12/98/31 10/99/31
f 10/99/31 8/100/31 6/63/31
f 6/63/31 2/73/31 62/75/31
f 62/75/31 58/77/31 54/79/31
f 54/79/31 50/81/31 46/83/31
f 46/83/31 42/85/31 38/61/31
f 38/61/31 34/88/31 30/90/31
f 30/90/31 26/92/31 22/62/31
f 22/62/31 18/95/31 14/97/31
f 14/97/31 10/99/31 6/63/31
f 6/63/31 62/75/31 54/79/31
f 54/79/31 46/83/31 38/61/31
f 38/61/31 30/90/31 22/62/31
f 22/62/31 14/97/31 6/63/31
f 6/63/31 54/79/31 38/61/31
f 62/64/32 64/66/32 63/65/32
f 64/66/33 2/101/33 1/67/33
f 63/70/34 1/102/34 3/103/34
f 3/103/34 5/104/34 7/105/34
f 7/105/34 9/106/34 11/107/34
f 11/107/34 13/108/34 15/109/34
f 15/109/34 17/110/34 19/111/34
f 19/111/34 21/112/34 23/113/34
f 23/113/34 25/114/34 27/115/34
f 27/115/34 29/116/34 31/68/34
f 31/68/34 33/117/34 35/118/34
f 35/118/34 37/119/34 39/120/34
f 39/120/34 41/121/34 43/122/34
f 43/122/34 45/123/34 47/69/34
f 47/69/34 49/124/34 51/125/34
f 51/125/34 53/126/34 55/127/34
f 55/127/34 57/128/34 59/129/34
f 59/129/34 61/130/34 63/70/34
f 63/70/34 3/103/34 7/105/34
f 7/105/34 11/107/34 15/109/34
f 15/109/34 19/111/34 23/113/34
f 23/113/34 27/115/34 31/68/34
f 31/68/34 35/118/34 39/120/34
f 39/120/34 43/122/34 47/69/34
f 47/69/34 51/125/34 55/127/34
f 55/127/34 59/129/34 63/70/34
f 63/70/34 7/105/34 15/109/34
f 15/109/34 23/113/34 31/68/34
f 31/68/34 39/120/34 47/69/34
f 47/69/34 55/127/34 63/70/34
f 63/70/34 15/109/34 31/68/34
